# xmcd CD database file
#
# Track frame offsets:
#	150
#	152489
#	162927
#	184822
#	200785
#	209907
#	215376
#	225466
#	231555
#	243542
#	258154
#	269683
#	274906
#	280042
#	286768
#
# Disc length: 4063 seconds
#
# Revision: 0
# Processed by: cddbd v1.5.1PL2 Copyright (c) Steve Scherf et al.
# Submitted via: CDex 1.51
#
DISCID=ea0fdd0f
DTITLE=PANDAHOUSE - 青い鳥 -L'Oiseau Bleu-
DYEAR=2001
DGENRE=Game
TTITLE0=Data Track
TTITLE1=踊ってスカイ、余裕でブルー
TTITLE2=あおいとり
TTITLE3=HappyGoLucky
TTITLE4=ディアーナの抱擁
TTITLE5=見参！愛の戦士
TTITLE6=るんるんらんらん
TTITLE7=ひねもすまた〜り春の海
TTITLE8=さびしくないよ
TTITLE9=青春の幻影
TTITLE10=日常PART2
TTITLE11=ToyDollDance
TTITLE12=悪の鼻提灯
TTITLE13=ヒョットコ無頼
TTITLE14=踊ってスカイ、余裕でブルー -Full ver.-
EXTD=YEAR: 2001
EXTT0=
EXTT1=
EXTT2=
EXTT3=
EXTT4=
EXTT5=
EXTT6=
EXTT7=
EXTT8=
EXTT9=
EXTT10=
EXTT11=
EXTT12=
EXTT13=
EXTT14=
PLAYORDER=
